<svg width="48" height="48" viewBox="0 0 48 48" fill="none" xmlns="http://www.w3.org/2000/svg">
<path d="M0 23.9997C0 33.8271 5.9096 42.2696 14.366 45.9814C14.2985 44.3056 14.354 42.2938 14.7838 40.4704C15.2452 38.5221 17.8719 27.393 17.8719 27.393C17.8719 27.393 17.1052 25.8606 17.1052 23.5959C17.1052 20.0393 19.1665 17.383 21.7338 17.383C23.9168 17.383 24.9715 19.0227 24.9715 20.9861C24.9715 23.1806 23.5718 26.463 22.852 29.5033C22.2507 32.0491 24.1285 34.1256 26.6401 34.1256C31.1873 34.1256 34.2499 28.2853 34.2499 21.3656C34.2499 16.1056 30.7071 12.1686 24.2633 12.1686C16.9831 12.1686 12.4477 17.5977 12.4477 23.662C12.4477 25.753 13.0642 27.2274 14.0298 28.3693C14.4738 28.8937 14.5355 29.1046 14.3748 29.7069C14.2597 30.1484 13.9953 31.2115 13.8858 31.6328C13.7261 32.2407 13.2335 32.458 12.6841 32.2336C9.3309 30.8647 7.76922 27.1926 7.76922 23.0647C7.76922 16.2472 13.5191 8.0724 24.922 8.0724C34.0851 8.0724 40.116 14.703 40.116 21.8205C40.116 31.2351 34.8818 38.2686 27.1662 38.2686C24.5751 38.2686 22.1378 36.8681 21.3029 35.2772C21.3029 35.2772 19.9096 40.8068 19.6145 41.8745C19.1056 43.7249 18.1096 45.5744 17.1989 47.0158C19.4072 47.6688 21.698 48.0002 24.0008 48C37.254 48 48 37.2549 48 23.9997C48 10.7451 37.254 0 24.0008 0C10.7463 0 0 10.7451 0 23.9997Z" fill="black" fill-opacity="0.63"/>
</svg>
